<?xml version="1.0" encoding="iso-8859-1"?>
<!-- Uploaded to: SVG Repo, www.svgrepo.com, Generator: SVG Repo Mixer Tools -->
<svg version="1.1" id="Layer_1" xmlns="http://www.w3.org/2000/svg" xmlns:xlink="http://www.w3.org/1999/xlink" 
	 viewBox="0 0 512 512" xml:space="preserve">
<path style="fill:#8CC63F;" d="M472.706,319.041h15.76l0,0c8.704,0,15.76-9.85,15.76-31.521v-70.922
	c0-8.704-7.056-15.76-15.76-15.76h-7.88c-8.704,0-15.76-7.056-15.76-15.76v-31.521c0-8.704-7.056-15.76-15.76-15.76l0,0h-15.76
	h-70.922V58.995V35.353c0-13.056-10.584-23.64-23.64-23.64h-55.161c-13.056,0-23.641,10.584-23.641,23.64l0,0v63.041H125.977l0,0
	c-21.761,0-39.401,17.64-39.401,39.401v94.562H47.174v15.76v20.297c0,23.607,19.138,42.745,42.745,42.745h193.661"/>
<path style="fill:#C69C6D;" d="M315.102,358.442L315.102,358.442c0,8.704-7.056,15.76-15.76,15.76h-15.76
	c-8.704,0-15.76-7.056-15.76-15.76v-47.281H244.18v19.701c0,10.88-8.82,19.701-19.701,19.701l0,0
	c-10.881,0-19.701-8.82-19.701-19.701v-19.701h-39.401v43.342c0,10.881,8.82,19.701,19.701,19.701l0,0
	c10.881,0,19.701,8.82,19.701,19.701v82.742l0,0c0,13.056-10.584,23.64-23.641,23.64h-7.88h157.604l0,0
	c-17.408,0-31.521-14.112-31.521-31.521l0,0v-51.222c0-10.881,8.82-19.701,19.701-19.701l0,0c10.88,0,19.701-8.82,19.701-19.701
	v-35.461h-23.641v15.761"/>
<g>
	<path style="fill:#A67C52;" d="M315.595,343.06v35.082c0,10.879-8.812,19.701-19.692,19.701c-10.88,0-19.692,8.82-19.692,19.701
		v51.222c0,17.408,13.602,31.833,31.011,31.833h23.641c-17.409,0-31.85-14.425-31.85-31.833v-51.222
		c0-10.881,8.812-19.701,19.692-19.701s19.692-8.82,19.692-19.701V343.06H315.595z"/>
	<path style="fill:#A67C52;" d="M244.081,358.442c0,8.704,7.156,15.711,15.86,15.711h15.76c1.369,0,2.723-0.204,3.989-0.533
		c-6.786-1.758-11.771-7.843-11.771-15.179v-45.438h-23.838v17.858V358.442z"/>
	<path style="fill:#A67C52;" d="M200.699,350.562c4.456,0,8.549-1.535,11.849-4.029c-4.758-3.596-7.851-9.247-7.851-15.671v-14.75
		h-23.838v14.749C180.858,341.742,189.818,350.562,200.699,350.562z"/>
</g>
<g>
	<path style="fill:#39B54A;" d="M338.742,224.478h-55.161c-8.704,0-15.76,7.056-15.76,15.76v31.521c0,8.704,7.056,15.76,15.76,15.76
		l0,0c8.704,0,15.76,7.056,15.76,15.76v23.641c0,8.704,7.056,15.76,15.76,15.76h126.084c8.704,0,15.76-7.056,15.76-15.76V287.52
		c0-8.704-7.056-15.76-15.76-15.76h-31.521c-8.704,0-15.76-7.056-15.76-15.76v-15.76c0-8.704-7.056-15.76-15.76-15.76"/>
	<path style="fill:#39B54A;" d="M189.018,279.641h35.461c10.881,0,19.701-8.82,19.701-19.701v-39.401
		c0-10.881-8.82-19.701-19.701-19.701h-31.521c-10.881,0-19.701-8.82-19.701-19.701l0,0c0-10.881-8.82-19.701-19.701-19.701H27.474
		c-10.881,0-19.701,8.82-19.701,19.701v31.521c0,10.881,8.82,19.701,19.701,19.701h39.401c10.881,0,19.701,8.82,19.701,19.701v7.88
		c0,10.881,8.82,19.701,19.701,19.701h51.222"/>
</g>
<g>
	<path style="fill:#8CC63F;" d="M370.526,240.239v15.76c0,8.704,6.793,15.547,15.497,15.547h23.641c-8.704,0-15.3-6.843-15.3-15.547
		v-15.76c0-8.705-7.517-15.333-16.221-15.333h-23.641C363.207,224.906,370.526,231.534,370.526,240.239z"/>
	<path style="fill:#8CC63F;" d="M433.749,327.111c0,8.704-7.501,15.95-16.205,15.95h23.64c8.704,0,15.365-7.434,15.365-16.138
		v-39.401c0-8.705-6.661-15.975-15.365-15.975h-23.64c8.704,0,16.205,7.257,16.205,15.962V327.111z"/>
	<path style="fill:#8CC63F;" d="M149.617,181.376c0,10.881,8.82,19.692,19.701,19.692h23.641c-10.881,0-19.701-8.812-19.701-19.692
		c0-10.881-8.82-19.692-19.701-19.692h-23.641C140.797,161.684,149.617,170.495,149.617,181.376z"/>
	<path style="fill:#8CC63F;" d="M220.243,260.039c0,10.879-8.524,19.799-19.404,19.799h23.64c10.881,0,19.602-9.018,19.602-19.898
		v-19.701v-19.701c0-10.881-8.722-19.471-19.602-19.471h-23.64c10.881,0,19.404,8.755,19.404,19.634V260.039z"/>
</g>
<path style="fill:#39B54A;" d="M161.438,122.036c-10.881,0-19.701-8.82-19.701-19.701V70.814c0-10.881,8.82-19.701,19.701-19.701
	h126.084c10.88,0,19.701,8.82,19.701,19.701l0,0c0,10.881,8.82,19.701,19.701,19.701h70.922c10.881,0,19.701,8.82,19.701,19.701
	v39.401c0,10.881-8.82,19.701-19.701,19.701h-82.742h-66.982c-10.881,0-19.701-8.82-19.701-19.701v-7.88
	c0-10.881-8.82-19.701-19.701-19.701H161.438z"/>
<g>
	<circle style="fill:#FF1D25;" cx="173.261" cy="279.641" r="15.76"/>
	<circle style="fill:#FF1D25;" cx="102.338" cy="200.84" r="15.76"/>
	<circle style="fill:#FF1D25;" cx="299.344" cy="169.322" r="15.76"/>
	<circle style="fill:#FF1D25;" cx="189.015" cy="122.04" r="15.76"/>
	<circle style="fill:#FF1D25;" cx="346.626" cy="303.282" r="15.76"/>
	<circle style="fill:#FF1D25;" cx="354.503" cy="224.481" r="15.76"/>
	<circle style="fill:#FF1D25;" cx="441.191" cy="232.358" r="15.76"/>
</g>
<g>
	<path style="fill:#8CC63F;" d="M267.821,70.477c0,10.881,8.82,19.692,19.701,19.692h39.401c-10.881,0-19.701-8.812-19.701-19.692
		s-8.82-19.692-19.701-19.692H248.12C259,50.785,267.821,59.597,267.821,70.477z"/>
	<path style="fill:#8CC63F;" d="M377.781,149.428c0,10.879-8.458,19.511-19.339,19.511h39.401c10.881,0,19.322-8.442,19.322-19.322
		v-39.401c0-10.881-8.442-20.046-19.322-20.046h-39.401c10.88,0,19.339,8.898,19.339,19.778V149.428z"/>
</g>
<path d="M488.466,326.814h-15.76v-15.547h15.76c4.405,0,7.988-3.583,7.988-7.987v-86.682c0-4.404-3.583-7.987-7.988-7.987h-7.88
	c-12.977,0-23.534-10.557-23.534-23.533v-31.521c0-4.405-3.583-7.988-7.987-7.988h-15.761v-15.547h15.761
	c12.976,0,23.533,10.557,23.533,23.534v31.521c0,4.404,3.583,7.987,7.988,7.987h7.88c12.977,0,23.534,10.557,23.534,23.533v86.682
	C512,316.257,501.443,326.814,488.466,326.814z"/>
<circle style="fill:#FF1D25;" cx="370.267" cy="90.512" r="15.76"/>
<path d="M102.336,224.372c-12.977,0-23.534-10.557-23.534-23.533c0-12.977,10.557-23.533,23.534-23.533
	c12.976,0,23.533,10.557,23.533,23.533C125.869,213.814,115.312,224.372,102.336,224.372z M102.336,192.85
	c-4.404,0-7.988,3.583-7.988,7.987c0,4.404,3.583,7.987,7.988,7.987c4.404,0,7.987-3.583,7.987-7.987
	C110.323,196.433,106.74,192.85,102.336,192.85z"/>
<path d="M346.622,326.814c-12.977,0-23.533-10.557-23.533-23.533c0-12.977,10.557-23.534,23.533-23.534
	c12.977,0,23.534,10.557,23.534,23.534C370.156,316.257,359.599,326.814,346.622,326.814z M346.622,295.294
	c-4.404,0-7.987,3.583-7.987,7.988c0,4.404,3.583,7.987,7.987,7.987c4.405,0,7.988-3.583,7.988-7.987
	C354.61,298.877,351.027,295.294,346.622,295.294z"/>
<path d="M441.185,255.893c-12.977,0-23.534-10.557-23.534-23.534c0-12.977,10.557-23.533,23.534-23.533
	c12.976,0,23.533,10.557,23.533,23.533C464.719,245.336,454.162,255.893,441.185,255.893z M441.185,224.372
	c-4.405,0-7.988,3.583-7.988,7.987s3.583,7.988,7.988,7.988c4.404,0,7.987-3.583,7.987-7.988S445.589,224.372,441.185,224.372z"/>
<rect x="38.866" y="201.068" width="16.583" height="15.547"/>
<rect x="134.219" y="216.615" width="15.547" height="15.547"/>
<rect x="149.765" y="232.161" width="46.64" height="15.547"/>
<path d="M134.219,114.008h-29.05c5.566-4.874,12.846-7.839,20.808-7.839V90.622c-26.011,0-47.174,21.162-47.174,47.174v7.881h15.547
	v-7.881c0-2.851,0.386-5.612,1.097-8.242h38.773v-15.548H134.219z"/>
<path d="M397.844,82.742h-5.372c-3.218-9.167-11.955-15.761-22.209-15.761s-18.991,6.593-22.209,15.761h-21.132
	c-6.577,0-11.927-5.351-11.927-11.927c0-15.15-12.324-27.474-27.474-27.474H161.438c-15.15,0-27.474,12.324-27.474,27.474v31.521
	c0,15.15,12.324,27.474,27.474,27.474h5.373c3.218,9.167,11.955,15.76,22.209,15.76c10.161,0,18.837-6.473,22.124-15.511
	c5.418,1.123,9.503,5.933,9.503,11.679v7.88c0,15.15,12.325,27.474,27.474,27.474h29.013c3.218,9.167,11.955,15.76,22.208,15.76
	c10.253,0,18.991-6.593,22.209-15.76h76.294c15.15,0,27.474-12.325,27.474-27.474v-39.401
	C425.318,95.067,412.993,82.742,397.844,82.742z M370.263,82.528c4.404,0,7.987,3.583,7.987,7.988c0,4.404-3.583,7.987-7.987,7.987
	c-4.405,0-7.988-3.583-7.988-7.987C362.276,86.111,365.859,82.528,370.263,82.528z M189.018,130.023
	c-4.404,0-7.987-3.583-7.987-7.987c0-4.404,3.583-7.987,7.987-7.987c4.405,0,7.988,3.583,7.988,7.987
	C197.006,126.44,193.423,130.023,189.018,130.023z M299.341,177.304c-4.404,0-7.987-3.583-7.987-7.987
	c0-4.404,3.583-7.987,7.987-7.987s7.987,3.583,7.987,7.987C307.329,173.721,303.746,177.304,299.341,177.304z M409.771,149.616
	c0,6.577-5.351,11.927-11.927,11.927h-76.294c-3.218-9.167-11.955-15.76-22.209-15.76c-10.252,0-18.991,6.593-22.209,15.76h-29.013
	c-6.577,0-11.927-5.351-11.927-11.927v-7.88c0-14.289-10.967-26.06-24.924-27.352c-3.183-9.232-11.951-15.883-22.25-15.883
	c-10.253,0-18.991,6.593-22.209,15.76h-5.372c-6.576,0-11.927-5.351-11.927-11.927V90.17h24.094V74.623H149.51v-3.809
	c0-6.576,5.351-11.927,11.927-11.927h126.084c6.576,0,11.927,5.351,11.927,11.927c0,15.15,12.325,27.474,27.474,27.474h21.132
	c3.218,9.167,11.955,15.76,22.209,15.76c10.252,0,18.99-6.593,22.208-15.76h5.372c6.577,0,11.927,5.351,11.927,11.927v39.401
	H409.771z"/>
<rect x="244.081" y="90.17" width="32.13" height="15.547"/>
<rect x="276.211" y="106.753" width="22.802" height="15.547"/>
<rect x="370.526" y="129.554" width="23.838" height="15.547"/>
<rect x="394.364" y="192.777" width="15.547" height="15.547"/>
<rect x="401.619" y="295.384" width="23.838" height="15.547"/>
<path d="M338.742,3.94h-55.161c-17.322,0-31.413,14.092-31.413,31.414h15.547c0-8.75,7.118-15.867,15.868-15.867h55.161
	c8.71,0,15.798,7.056,15.862,15.752h-16.208v15.547h16.213v8.209h15.547V35.353C370.156,18.031,356.064,3.94,338.742,3.94z"/>
<path d="M78.802,252.059v7.881c0,15.149,12.325,27.474,27.474,27.474h44.773c3.218,9.167,11.955,15.761,22.209,15.761
	c10.253,0,18.991-6.593,22.209-15.761h29.013c15.149,0,27.474-12.325,27.474-27.474v-39.401c0-15.149-12.325-27.474-27.474-27.474
	h-31.521c-6.577,0-11.927-5.351-11.927-11.927c0-15.15-12.324-27.474-27.474-27.474H27.474C12.324,153.664,0,165.988,0,181.138
	v31.521c0,15.15,12.324,27.474,27.474,27.474h39.401C73.451,240.132,78.802,245.483,78.802,252.059z M173.258,287.627
	c-4.404,0-7.987-3.583-7.987-7.988c0-4.404,3.583-7.988,7.987-7.988s7.987,3.583,7.987,7.988S177.662,287.627,173.258,287.627z
	 M15.547,212.659v-11.59h23.32v-15.547h-23.32v-4.384c0-6.577,5.351-11.927,11.927-11.927h126.084
	c6.576,0,11.927,5.351,11.927,11.927c0,15.15,12.325,27.474,27.474,27.474h31.521c6.576,0,11.927,5.351,11.927,11.927v39.401
	c0,6.576-5.351,11.927-11.927,11.927h-29.013c-3.218-9.167-11.955-15.761-22.209-15.761c-10.252,0-18.99,6.593-22.209,15.761
	h-44.773c-6.576,0-11.927-5.351-11.927-11.927v-7.881c0-15.149-12.324-27.474-27.474-27.474H27.474
	C20.898,224.585,15.547,219.235,15.547,212.659z"/>
<path d="M441.185,263.987h-31.521c-4.404,0-7.987-3.583-7.987-7.988v-15.76c0-12.976-10.557-23.533-23.534-23.533h-1.432
	c-3.218-9.167-11.955-15.76-22.209-15.76c-10.252,0-18.991,6.593-22.209,15.76H283.58c-12.977,0-23.533,10.557-23.533,23.533v31.521
	c0,12.976,10.557,23.533,23.533,23.533c4.404,0,7.987,3.583,7.987,7.988v23.641c0,10.252,6.593,18.991,15.76,22.208v9.312
	c0,4.405-3.583,7.988-7.987,7.988h-15.76c-4.405,0-7.988-3.583-7.988-7.988v-39.508h7.988v-15.547H89.919
	c-19.283,0-34.971-15.689-34.971-34.971V248.12H39.401v20.297c0,27.855,22.662,50.518,50.518,50.518h67.686v35.567
	c0,15.15,12.324,27.474,27.474,27.474c6.577,0,11.927,5.351,11.927,11.927v82.742c0,8.75-7.118,15.867-15.867,15.868h-0.01h-7.87
	v15.547h7.881c0.003,0,0.007,0,0.01,0l0,0l145.744-0.2c1.306,0.132,2.629,0.2,3.97,0.2v-0.206h0.01l-0.01-7.773v-7.568
	c-0.003,0-0.007,0-0.01,0v-0.205l-3.03,0.004c-11.663-1.498-20.707-11.482-20.707-23.546v-51.221
	c0-6.577,5.351-11.927,11.927-11.927c15.15,0,27.474-12.324,27.474-27.474v-27.687h94.669c12.976,0,23.533-10.557,23.533-23.533
	v-39.401C464.719,274.544,454.162,263.987,441.185,263.987z M354.503,216.492c4.404,0,7.987,3.583,7.987,7.987
	c0,4.404-3.583,7.987-7.987,7.987s-7.987-3.583-7.987-7.987C346.515,220.075,350.098,216.492,354.503,216.492z M212.553,318.934
	h23.855v11.927c0,6.577-5.351,11.927-11.927,11.927s-11.927-5.351-11.927-11.927L212.553,318.934L212.553,318.934z M330.969,378.143
	c0,6.576-5.351,11.927-11.927,11.927c-15.15,0-27.474,12.325-27.474,27.474v51.221c0,8.843,2.938,17.012,7.887,23.585l-91.2,0.125
	c2.726-4.653,4.297-10.06,4.297-15.831v-82.742c0-15.149-12.325-27.474-27.474-27.474c-6.576,0-11.927-5.351-11.927-11.927v-35.567
	h23.855v11.927c0,15.15,12.325,27.474,27.474,27.474c15.149,0,27.474-12.325,27.474-27.474v-11.927h8.095v39.508
	c0,12.977,10.557,23.534,23.533,23.534h15.76c12.976,0,23.533-10.557,23.533-23.534v-7.988h8.095L330.969,378.143L330.969,378.143z
	 M449.172,326.922c0,4.404-3.583,7.987-7.987,7.987H315.102c-4.404,0-7.987-3.583-7.987-7.987v-23.641
	c0-12.977-10.557-23.534-23.533-23.534c-4.405,0-7.988-3.583-7.988-7.987v-31.521c0-4.404,3.583-7.987,7.988-7.987h48.714
	c3.218,9.167,11.955,15.76,22.208,15.76c10.253,0,18.991-6.593,22.209-15.76h1.432c4.405,0,7.988,3.583,7.988,7.987v15.761
	c0,12.977,10.557,23.534,23.533,23.534h31.521c4.404,0,7.987,3.583,7.987,7.987v39.401H449.172z"/>
</svg>