<?xml version="1.0" encoding="iso-8859-1"?>
<!-- Uploaded to: SVG Repo, www.svgrepo.com, Generator: SVG Repo Mixer Tools -->
<svg height="800px" width="800px" version="1.1" id="Layer_1" xmlns="http://www.w3.org/2000/svg" xmlns:xlink="http://www.w3.org/1999/xlink" 
	 viewBox="0 0 512.001 512.001" xml:space="preserve">
<path style="fill:#CCF7FF;" d="M414.07,441.745L310.446,212.908V45.955h-108.89v166.952L97.931,441.745
	c-14.218,28.173,6.259,61.443,37.816,61.443h240.506C407.811,503.188,428.287,469.918,414.07,441.745z"/>
<polygon style="opacity:0.15;fill:#333333;enable-background:new    ;" points="201.556,89.111 310.445,89.111 310.446,89.111 
	310.446,45.956 201.556,45.956 "/>
<path style="fill:#66E6FF;" d="M310.446,8.812h-108.89c-15.685,0-28.4,12.715-28.4,28.4s12.715,28.4,28.4,28.4h108.89
	c15.685,0,28.4-12.715,28.4-28.4S326.131,8.812,310.446,8.812z"/>
<path style="fill:#56D676;" d="M387.567,454.425l-73.181-161.606H197.614l-73.181,161.606l-0.278,0.553
	c-2.843,5.636-0.886,10.349,0.535,12.655c1.419,2.308,4.746,6.179,11.059,6.179h240.506c6.313,0,9.638-3.872,11.059-6.179
	c1.421-2.308,3.378-7.022,0.533-12.657L387.567,454.425z"/>
<path style="fill:#26150C;" d="M422.025,437.947L319.258,211.006V73.361c16.278-3.969,28.4-18.665,28.4-36.149
	C347.658,16.693,330.964,0,310.446,0h-108.89c-20.519,0-37.212,16.693-37.212,37.212c0,17.483,12.121,32.18,28.4,36.149v137.645
	l-46.338,102.33c-0.357,0.596-0.654,1.231-0.864,1.908l-22.03,48.65c-0.558,0.818-0.974,1.737-1.231,2.72l-21.752,48.035
	c-0.719,0.979-1.244,2.105-1.51,3.333l-9.041,19.966c-7.973,15.945-7.159,34.51,2.191,49.703
	c9.384,15.247,25.676,24.35,43.579,24.35h240.506c17.904,0,34.195-9.102,43.579-24.35
	C429.183,472.457,429.998,453.894,422.025,437.947z M181.968,37.212c0-10.8,8.788-19.588,19.588-19.588h108.89
	c10.8,0,19.588,8.788,19.588,19.588S321.246,56.8,310.446,56.8h-108.89C190.755,56.8,181.968,48.012,181.968,37.212z
	 M159.715,326.668h12.899l-15.114,33.374h-12.899L159.715,326.668z M190.705,360.043h-13.857l15.113-33.374h21.911
	c4.867,0,8.812-3.944,8.812-8.812s-3.946-8.812-8.812-8.812h-13.929l3.356-7.413h105.406l70.837,156.429
	c0.052,0.114,0.106,0.227,0.162,0.338l0.277,0.549c0.315,0.623,1.052,2.082-0.172,4.068s-2.857,1.986-3.554,1.986H135.747
	c-0.698,0-2.331,0-3.554-1.986c-1.222-1.984-0.485-3.444-0.169-4.07l0.278-0.553c0.055-0.109,0.108-0.221,0.159-0.331l13.311-29.395
	h21.766c4.867,0,8.812-3.944,8.812-8.812s-3.946-8.812-8.812-8.812h-13.785l15.113-33.375h21.838c4.867,0,8.812-3.944,8.812-8.812
	C199.517,363.987,195.57,360.043,190.705,360.043z M136.62,377.667h12.899l-15.113,33.375h-12.899L136.62,377.667z M404.823,478.413
	c-6.152,9.995-16.832,15.963-28.569,15.963H135.747c-11.737,0-22.417-5.968-28.569-15.963c-6.152-9.997-6.668-22.22-1.379-32.698
	c0.055-0.11,0.109-0.222,0.16-0.335l7.568-16.714h12.899l-9.942,21.958l-0.195,0.385c-3.487,6.911-3.159,14.655,0.896,21.244
	c4.057,6.591,10.823,10.373,18.563,10.373h240.506c7.739,0,14.506-3.78,18.563-10.371c4.058-6.592,4.384-14.336,0.895-21.25
	l-0.194-0.383l-73.104-161.436c-1.428-3.152-4.568-5.177-8.029-5.177H197.614c-3.46,0-6.6,2.026-8.027,5.177l-8.993,19.859h-12.899
	l15.113-33.375h54.228c4.867,0,8.812-3.944,8.812-8.812s-3.946-8.812-8.812-8.812h-46.248l18.793-41.501
	c0.517-1.142,0.785-2.38,0.785-3.635V74.424h91.266v138.484c0,1.254,0.268,2.493,0.785,3.635L406.043,445.38
	c0.051,0.113,0.105,0.224,0.16,0.335C411.491,456.193,410.974,468.416,404.823,478.413z"/>
</svg>