<!DOCTYPE svg PUBLIC "-//W3C//DTD SVG 1.1//EN" "http://www.w3.org/Graphics/SVG/1.1/DTD/svg11.dtd">
<!-- Uploaded to: SVG Repo, www.svgrepo.com, Transformed by: SVG Repo Mixer Tools -->
<svg fill="#e6db60" height="800px" width="800px" version="1.1" id="Layer_1" xmlns="http://www.w3.org/2000/svg" xmlns:xlink="http://www.w3.org/1999/xlink" viewBox="0 0 512 512" xml:space="preserve" stroke="#e6db60">
<g id="SVGRepo_bgCarrier" stroke-width="0"/>
<g id="SVGRepo_tracerCarrier" stroke-linecap="round" stroke-linejoin="round"/>
<g id="SVGRepo_iconCarrier"> <g> <g> <g> <path d="M498.773,181.76l-25.493-14.72c1.813-11.733,1.813-23.68,0-35.413l25.493-14.72c5.12-2.987,6.827-9.493,3.947-14.613 l-32-55.467c-2.987-5.12-9.493-6.827-14.613-3.947L456,42.987L431.68,57.6c-7.573-5.76-17.173-11.413-28.373-17.067V10.667 C402.667,4.8,397.867,0,392,0h-64.533C321.6,0,316.8,4.8,316.8,10.667V39.36c-14.827,4.48-23.573,10.88-32.107,18.453 l-26.027-14.72c-5.12-2.88-11.52-1.173-14.507,3.947l-32.32,55.467c-2.987,5.12-1.28,11.627,3.84,14.613l25.28,14.72 c-1.813,11.733-1.92,23.68-0.107,35.413l-25.387,14.507c-5.013,2.987-6.827,9.387-3.947,14.507l32,55.467 c1.813,3.093,5.12,5.013,8.64,5.12l-23.787,14.293c-7.573-5.76-17.173-11.413-29.013-17.067V224 c0-5.867-4.8-10.667-10.667-10.667H125.12c-5.867,0-10.667,4.8-11.093,10.667v28.693c-14.4,4.48-23.147,10.88-31.68,18.453 l-26.027-14.72c-5.12-2.88-11.52-1.173-14.507,3.947l-32.107,55.36c-2.987,5.12-1.28,11.627,3.84,14.613l25.28,14.72 c-1.813,11.733-1.92,23.68-0.107,35.413l-25.493,14.613C8.107,398.08,6.4,404.587,9.28,409.6l32,55.467 c2.88,5.013,9.28,6.827,14.4,4.053l26.667-14.827c8.427,7.467,17.173,13.867,32.747,18.453v28.587 C114.453,507.2,119.253,512,125.12,512h63.68c5.867,0,10.667-4.8,10.667-10.667v-30.08c11.84-5.653,21.44-11.2,29.12-17.067 l24.32,14.613c5.013,2.987,11.627,1.387,14.613-3.627c0,0,0-0.107,0.107-0.107l32-55.467c2.987-5.12,1.173-11.627-3.947-14.613 l-25.493-14.72c1.813-11.733,1.813-23.68,0-35.413l25.493-14.72c5.12-2.987,6.827-9.493,3.947-14.507l-32-55.467 c-1.6-3.307-5.013-5.333-8.64-5.12l25.707-14.293c8.427,7.467,17.173,13.867,32.107,18.453V288c0,5.867,4.8,10.667,10.667,10.667 h64.427c5.867,0,10.667-4.8,10.24-10.667v-30.08c12.267-5.653,21.867-11.2,29.547-17.067L456,255.467 c5.013,3.093,11.627,1.387,14.613-3.627c0,0,0-0.107,0.107-0.107l32-55.467C505.6,191.147,503.787,184.64,498.773,181.76z M276.16,317.12l-22.72,13.12c-4.053,2.347-6.08,7.04-5.12,11.52c3.093,13.76,3.093,27.947,0,41.707 c-0.96,4.587,1.067,9.173,5.12,11.52l22.72,13.12l-21.227,36.907l-21.44-12.907c-4.053-2.453-9.173-1.92-12.693,1.28 c-7.68,7.04-19.733,14.187-35.84,21.333c-3.84,1.707-6.293,5.547-5.653,9.707v26.24h-43.733v-26.24 c0.427-5.013-3.093-9.28-8-10.453c-18.24-4.053-25.28-10.453-36.373-20.693c-3.413-3.093-8.32-3.733-12.373-1.493l-24.107,13.44 l-21.44-37.12l22.827-13.12c4.053-2.347,6.08-7.04,5.12-11.52c-3.093-13.76-3.093-27.947,0.107-41.707 c0.96-4.587-1.067-9.173-5.12-11.52L33.6,317.12L55.253,280l23.573,13.333c4.16,2.133,9.28,1.493,12.8-1.707 c10.667-9.813,17.707-16.32,36.053-20.373c4.907-1.067,8.32-5.44,9.067-10.453v-26.133h41.6v26.24c0.427,4.267,2.88,8,6.72,9.707 c16.107,7.147,28.16,14.293,35.84,21.333c3.52,3.2,8.64,3.733,12.693,1.28l21.547-12.907L276.16,317.12z M457.6,231.68 l-21.44-12.907c-4.053-2.453-9.173-1.92-12.693,1.28c-7.68,7.04-19.733,14.187-35.84,21.333c-3.84,1.707-6.293,5.547-5.653,9.707 v26.24H338.24v-26.24c0.427-5.013-3.093-9.28-8-10.453c-18.24-4.053-25.28-10.453-36.373-20.693 c-3.413-3.093-8.32-3.733-12.373-1.493l-24.107,13.44l-21.44-37.12l22.827-13.12c4.053-2.347,6.08-7.04,5.12-11.52 c-3.093-13.76-3.093-27.947,0.107-41.707c0.96-4.587-1.067-9.173-5.12-11.52l-22.613-13.12l21.653-37.12L281.493,80 c4.16,2.133,9.28,1.493,12.8-1.707C304.96,68.48,312,61.973,330.347,57.92c4.907-1.067,8.32-5.44,9.067-10.453V21.333h41.6v26.24 c0.427,4.267,2.88,8,6.72,9.707c16.107,7.147,28.267,14.4,35.84,21.333c3.52,3.2,8.64,3.733,12.693,1.28L457.6,66.987 l21.227,36.8L456,116.907c-4.053,2.347-6.08,7.04-5.12,11.52c3.093,13.76,3.093,27.947,0,41.707 c-0.96,4.587,1.067,9.173,5.12,11.52l22.72,13.12L457.6,231.68z"/> <path d="M357.333,96C327.893,96,304,119.893,304,149.333c0,29.44,23.893,53.333,53.333,53.333s53.333-23.893,53.333-53.333 C410.667,119.893,386.773,96,357.333,96z M357.333,181.333c-17.707,0-32-14.293-32-32c0-17.707,14.293-32,32-32 c17.707,0,32,14.293,32,32C389.333,167.04,375.04,181.333,357.333,181.333z"/> <path d="M154.667,309.333c-29.44,0-53.333,23.893-53.333,53.333S125.227,416,154.667,416S208,392.107,208,362.667 S184.107,309.333,154.667,309.333z M154.667,394.667c-17.707,0-32-14.293-32-32s14.293-32,32-32s32,14.293,32,32 S172.373,394.667,154.667,394.667z"/> </g> </g> </g> </g>
</svg>