<?xml version="1.0" encoding="iso-8859-1"?>
<!-- Uploaded to: SVG Repo, www.svgrepo.com, Generator: SVG Repo Mixer Tools -->
<svg height="800px" width="800px" version="1.1" id="Layer_1" xmlns="http://www.w3.org/2000/svg" xmlns:xlink="http://www.w3.org/1999/xlink" 
	 viewBox="0 0 512 512" xml:space="preserve">
<path style="fill:#08C5FF;" d="M10.449,366.4v39.428c89.015,0,172.547,21.894,244.822,60.198h1.459
	c72.275-38.304,155.807-60.199,244.822-60.199v-39.428H10.449V366.4z"/>
<path style="fill:#FFFFFB;" d="M255.271,106.173C182.996,67.869,99.464,45.976,10.449,45.976V366.82
	c89.015,0,172.547,21.894,244.822,60.198h1.459c72.275-38.304,155.807-60.198,244.822-60.198V45.976
	c-89.015,0-172.547,21.894-244.822,60.198H255.271z"/>
<path d="M501.551,35.527c-85.955,0-170.748,20.466-245.551,59.231C181.197,55.993,96.404,35.527,10.449,35.527
	C4.678,35.527,0,40.205,0,45.976V366.4v39.428c0,5.771,4.678,10.449,10.449,10.449c84.155,0,167.121,20.395,239.929,58.98
	c1.507,0.798,3.187,1.216,4.893,1.216h1.459c1.705,0,3.385-0.418,4.893-1.216c72.806-38.585,155.772-58.98,239.927-58.98
	c5.771,0,10.449-4.678,10.449-10.449V45.976C512,40.205,507.322,35.527,501.551,35.527z M20.898,56.529
	c80.557,1.616,159.689,21.89,229.48,58.876c1.507,0.798,3.187,1.216,4.893,1.216h1.459c1.705,0,3.385-0.418,4.893-1.216
	c69.79-36.986,148.921-57.259,229.478-58.876v299.942c-78.397,1.512-155.516,20.032-224.653,53.881V173.296
	c0-5.771-4.678-10.449-10.449-10.449c-5.771,0-10.449,4.678-10.449,10.449v237.057c-69.137-33.85-146.256-52.369-224.653-53.882
	V56.529z M256,454.61c-71.77-37.193-152.734-57.541-235.102-59.13v-18.092c80.561,1.615,159.688,21.875,229.48,58.862
	c1.507,0.799,3.187,1.216,4.893,1.216h1.459c1.705,0,3.385-0.417,4.893-1.216c69.792-36.987,148.92-57.247,229.48-58.862v18.092
	C408.734,397.067,327.77,417.417,256,454.61z"/>
<path d="M256,152.147c5.771,0,10.449-4.678,10.449-10.449v-0.129c0-5.771-4.678-10.449-10.449-10.449
	c-5.771,0-10.449,4.678-10.449,10.449v0.129C245.551,147.469,250.229,152.147,256,152.147z"/>
<path d="M218.726,138.873c-43.589-17.501-89.768-27.918-137.254-30.962c-5.754-0.379-10.727,4-11.096,9.759
	c-0.37,5.758,4,10.727,9.759,11.096c45.268,2.903,89.277,12.827,130.805,29.5c1.276,0.513,2.593,0.755,3.889,0.755
	c4.142,0,8.062-2.48,9.701-6.559C226.68,147.107,224.081,141.023,218.726,138.873z"/>
<path d="M52.237,106.975h-0.057c-5.771,0-10.421,4.678-10.421,10.449s4.706,10.449,10.477,10.449s10.449-4.678,10.449-10.449
	S58.008,106.975,52.237,106.975z"/>
<path d="M324.741,149.035c1.067,0,2.152-0.165,3.221-0.511c42.308-13.703,86.671-20.651,131.858-20.651
	c5.771,0,10.449-4.678,10.449-10.449s-4.678-10.449-10.449-10.449c-47.377,0-93.906,7.29-138.296,21.667
	c-5.49,1.778-8.499,7.671-6.722,13.16C316.234,146.223,320.332,149.035,324.741,149.035z"/>
<path d="M297.168,159.021c1.219,0,2.46-0.215,3.668-0.669c0.04-0.015,0.08-0.03,0.12-0.046c5.332-2.066,8.019-8.044,6.006-13.411
	c-2.025-5.403-8.051-8.14-13.453-6.115c-0.041,0.015-0.083,0.031-0.124,0.047c-5.329,2.067-8.014,8.044-6.003,13.409
	C288.956,156.433,292.938,159.021,297.168,159.021z"/>
<path d="M218.726,201.62c-43.589-17.501-89.768-27.918-137.254-30.962c-5.754-0.378-10.727,4-11.096,9.759
	c-0.37,5.758,4,10.727,9.759,11.096c45.268,2.903,89.277,12.827,130.805,29.5c1.276,0.513,2.593,0.755,3.889,0.755
	c4.142,0,8.062-2.48,9.701-6.559C226.68,209.854,224.081,203.77,218.726,201.62z"/>
<path d="M52.237,169.722h-0.057c-5.771,0-10.421,4.678-10.421,10.449s4.706,10.449,10.477,10.449s10.449-4.678,10.449-10.449
	S58.008,169.722,52.237,169.722z"/>
<path d="M324.741,211.782c1.067,0,2.152-0.165,3.221-0.511c42.308-13.703,86.671-20.651,131.858-20.651
	c5.771,0,10.449-4.678,10.449-10.449s-4.678-10.449-10.449-10.449c-47.377,0-93.906,7.29-138.296,21.667
	c-5.49,1.778-8.499,7.671-6.722,13.16C316.234,208.97,320.332,211.782,324.741,211.782z"/>
<path d="M297.168,221.768c1.219,0,2.46-0.215,3.668-0.669c0.04-0.015,0.08-0.03,0.12-0.046c5.332-2.066,8.019-8.044,6.006-13.411
	c-2.025-5.403-8.051-8.139-13.453-6.115c-0.041,0.015-0.083,0.031-0.124,0.047c-5.329,2.067-8.014,8.044-6.003,13.409
	C288.956,219.18,292.938,221.768,297.168,221.768z"/>
<path d="M218.726,264.368c-43.589-17.501-89.768-27.919-137.254-30.962c-5.754-0.376-10.727,4-11.096,9.759
	c-0.37,5.758,4,10.727,9.759,11.096c45.268,2.903,89.277,12.828,130.805,29.501c1.277,0.513,2.593,0.755,3.89,0.755
	c4.142,0,8.062-2.48,9.7-6.558C226.68,272.601,224.081,266.517,218.726,264.368z"/>
<path d="M52.317,232.469c-0.045,0-0.1-0.001-0.137-0.001c-5.771,0-10.449,4.678-10.449,10.449c0,5.746,4.637,10.408,10.374,10.449
	c0.044,0,0.097,0.001,0.133,0.001c5.771,0,10.449-4.678,10.449-10.449C62.686,237.174,58.05,232.512,52.317,232.469z"/>
<path d="M324.741,274.528c1.067,0,2.152-0.165,3.221-0.511c42.308-13.703,86.671-20.651,131.858-20.651
	c5.771,0,10.449-4.678,10.449-10.449s-4.678-10.449-10.449-10.449c-47.377,0-93.906,7.29-138.296,21.667
	c-5.49,1.778-8.499,7.671-6.722,13.16C316.234,271.717,320.332,274.528,324.741,274.528z"/>
<path d="M297.168,284.516c1.219,0,2.46-0.215,3.668-0.669c0.039-0.015,0.079-0.03,0.119-0.045c5.332-2.066,8.02-8.045,6.007-13.411
	c-2.025-5.403-8.051-8.141-13.453-6.115c-0.041,0.016-0.084,0.031-0.125,0.048c-5.329,2.068-8.013,8.044-6.002,13.409
	C288.956,281.927,292.938,284.516,297.168,284.516z"/>
<path d="M218.726,327.115c-43.587-17.5-89.766-27.918-137.254-30.962c-5.768-0.375-10.728,4-11.097,9.758
	c-0.37,5.759,4,10.727,9.758,11.097c45.27,2.903,89.279,12.828,130.805,29.501c1.277,0.513,2.593,0.755,3.89,0.755
	c4.142,0,8.062-2.48,9.7-6.558C226.68,335.348,224.081,329.264,218.726,327.115z"/>
<path d="M52.237,295.216h-0.057c-5.771,0-10.421,4.678-10.421,10.449c0,5.771,4.706,10.449,10.477,10.449
	s10.449-4.678,10.449-10.449C62.684,299.894,58.008,295.216,52.237,295.216z"/>
<path d="M324.741,337.275c1.067,0,2.152-0.165,3.221-0.511c42.307-13.703,86.67-20.65,131.858-20.65
	c5.771,0,10.449-4.678,10.449-10.449c0-5.771-4.678-10.449-10.449-10.449c-47.378,0-93.907,7.29-138.296,21.667
	c-5.49,1.778-8.499,7.671-6.722,13.16C316.234,334.463,320.332,337.275,324.741,337.275z"/>
<path d="M297.168,347.262c1.219,0,2.46-0.215,3.668-0.669c0.039-0.015,0.079-0.03,0.119-0.045c5.332-2.066,8.02-8.045,6.007-13.411
	c-2.025-5.403-8.051-8.14-13.453-6.115c-0.041,0.016-0.084,0.031-0.125,0.048c-5.329,2.068-8.013,8.044-6.002,13.409
	C288.956,344.674,292.938,347.262,297.168,347.262z"/>
</svg>